<svg viewBox="0 0 500 500" xml:space="preserve" xmlns="http://www.w3.org/2000/svg" enable-background="new 0 0 500 500"><circle cx="250" cy="250" r="250" fill="#ffffff" class="fill-f4f1f0"></circle><path d="m247.417 226.118 6.69-4.324 7.362 3.07-2.051-7.715 5.192-6.054-7.964-.434-4.15-6.798-2.876 7.438-7.753 1.845 6.18 5.023zM299.127 256.809l-7.683 2.127-6.109-5.106-.347 7.959-6.755 4.233 7.471 2.788 1.932 7.736 4.964-6.239 7.948.548-4.405-6.646zM329.872 219.048l-1.15-15.234-11.394 10.178-14.849-3.613 6.169 13.986-8.03 13.01 15.202-1.552 9.891 11.654 3.233-14.941 14.139-5.795z" fill="#fae2dc" class="fill-ff931e"></path><path d="m177.745 296.229 7.71 11.258 82.248-56.391-7.715-11.247zM148.638 316.194l7.715 11.242 25.353-17.371-7.704-11.254z" fill="#7e7e7e" class="fill-675f58"></path><path d="M362.776 140.077H137.229c-14.415.021-26.09 11.708-26.117 26.117v167.611c.027 14.409 11.702 26.09 26.117 26.117h225.548c14.41-.027 26.097-11.708 26.112-26.117V166.194c-.016-14.409-11.703-26.095-26.113-26.117zm-2.772 16.732a5.94 5.94 0 0 1 5.941 5.941 5.937 5.937 0 0 1-5.941 5.93 5.932 5.932 0 0 1-5.93-5.93 5.933 5.933 0 0 1 5.93-5.941zm-46.642.358h29.188a5.582 5.582 0 1 1 0 11.165h-29.188a5.584 5.584 0 0 1 0-11.165zm61.29 176.639c-.011 6.488-5.392 11.859-11.876 11.87H137.229c-6.477-.011-11.854-5.382-11.87-11.87V182.938h249.294v150.868z" fill="#7e7e7e" class="fill-675f58"></path></svg>