<svg data-name="Your Icons" viewBox="0 0 48 48" xmlns="http://www.w3.org/2000/svg"><path d="M37 16h-6.13l-4-7.95a1 1 0 1 0-1.78.9L28.63 16h-9.26l3.52-7a1 1 0 1 0-1.78-.9l-4 8H11a3 3 0 0 0-3 3v.45A2.55 2.55 0 0 0 10.55 22l1.32 4.15a9.64 9.64 0 0 0-.84.58A8 8 0 1 0 23.41 36h6.67a4 4 0 0 0 3.81-2.79L37.45 22A2.56 2.56 0 0 0 40 19.45V19a3 3 0 0 0-3-3ZM16 39a6 6 0 0 1-6-6 6 6 0 0 1 2.27-4.7c.17-.13.34-.23.52-.35s.28-.18.43-.26.26-.12.4-.18l.47-.2c.15 0 .31-.08.46-.12l.47-.11A6.37 6.37 0 0 1 16 27a6 6 0 0 1 6 6 5.68 5.68 0 0 1-.05.72v.24c0 .16-.06.31-.1.46l-.06.26a5.31 5.31 0 0 1-.2.56v.08a6.77 6.77 0 0 1-.33.66A6 6 0 0 1 16 39Zm22-19.55a.53.53 0 0 1-.18.4.5.5 0 0 1-.37.15 2 2 0 0 0-1.91 1.39L32 32.6a2 2 0 0 1-1.9 1.4h-6.16v-.07A7.26 7.26 0 0 0 24 33a7.82 7.82 0 0 0-.28-2.06.88.88 0 0 0 .28.06 1 1 0 0 0 1-1v-6a1 1 0 0 0-2 0v5.13a8 8 0 0 0-3.31-3.22L19 23.68a1 1 0 1 0-1.9.64l.27.8A8.2 8.2 0 0 0 16 25a7.17 7.17 0 0 0-1 .08h-.2a7.43 7.43 0 0 0-1 .21h-.09l-1.25-3.94A2 2 0 0 0 10.55 20a.55.55 0 0 1-.55-.55V19a1 1 0 0 1 1-1h5.13l-.76 1.52a1.48 1.48 0 0 0-.36.89.11.11 0 0 1 0 .05 1.5 1.5 0 1 0 2.62-1l.74-1.46h11.26l.75 1.51a1.5 1.5 0 1 0 2.62 1 .11.11 0 0 1 0-.05 1.48 1.48 0 0 0-.36-.89L31.87 18H37a1 1 0 0 1 1 1Z" fill="#7e7e7e" class="fill-000000"></path><path d="M30.32 23.05a1 1 0 0 0-1.27.63l-2 6a1 1 0 0 0 .63 1.32 1.25 1.25 0 0 0 .32 0 1 1 0 0 0 .95-.68l2-6a1 1 0 0 0-.63-1.27ZM17.81 31.34l-2.43 2.33-1.18-1.13A1 1 0 1 0 12.81 34l1.88 1.8a1 1 0 0 0 1.38 0l3.13-3a1 1 0 0 0 0-1.41 1 1 0 0 0-1.39-.05Z" fill="#7e7e7e" class="fill-000000"></path></svg>